<?xml version="1.0" standalone="no"?>
<!DOCTYPE svg PUBLIC "-//W3C//DTD SVG 20010904//EN"
 "http://www.w3.org/TR/2001/REC-SVG-20010904/DTD/svg10.dtd">
<svg version="1.0" xmlns="http://www.w3.org/2000/svg"
 width="900.000000pt" height="870.000000pt" viewBox="0 0 900.000000 870.000000"
 preserveAspectRatio="xMidYMid meet">
<metadata>
Created by potrace 1.10, written by Peter Selinger 2001-2011
</metadata>
<g transform="translate(0.000000,870.000000) scale(0.100000,-0.100000)"
fill="#000000" stroke="none">
<path d="M3960 8244 c-104 -24 -159 -51 -237 -116 -66 -55 -123 -131 -164
-218 -38 -82 -51 -238 -30 -343 21 -100 121 -255 194 -300 25 -16 28 -22 23
-49 -3 -17 -17 -45 -29 -62 -13 -17 -31 -44 -39 -61 -8 -16 -28 -52 -43 -80
-16 -27 -39 -70 -52 -95 -13 -25 -30 -56 -38 -70 -9 -14 -56 -99 -105 -190
-50 -91 -95 -172 -100 -180 -6 -8 -22 -37 -35 -65 -14 -27 -35 -66 -46 -85
-12 -19 -35 -60 -52 -90 -16 -30 -58 -107 -92 -170 -34 -63 -84 -153 -110
-200 -27 -47 -63 -114 -82 -150 -19 -36 -43 -78 -54 -95 -10 -16 -21 -37 -24
-45 -3 -8 -13 -28 -22 -45 -9 -16 -24 -45 -34 -63 -9 -18 -22 -38 -27 -45 -10
-13 -72 -127 -186 -344 -24 -46 -48 -88 -53 -95 -6 -7 -34 -58 -63 -113 -29
-55 -61 -113 -71 -130 -10 -16 -33 -62 -52 -101 -19 -39 -53 -100 -75 -135
-22 -35 -50 -79 -61 -97 -12 -18 -21 -38 -21 -43 0 -6 -13 -29 -28 -52 -15
-23 -38 -64 -52 -92 -13 -27 -34 -64 -47 -81 -13 -17 -23 -39 -23 -48 0 -25
-35 -88 -64 -115 -14 -14 -26 -29 -26 -36 0 -9 -27 -62 -97 -187 -12 -21 -27
-54 -33 -73 -6 -19 -17 -38 -25 -42 -7 -5 -39 -57 -70 -118 -32 -60 -64 -121
-72 -135 -8 -14 -26 -45 -40 -70 -14 -25 -43 -79 -65 -120 -67 -126 -110 -205
-118 -215 -4 -5 -24 -41 -45 -80 -21 -38 -48 -88 -61 -110 -12 -22 -34 -62
-48 -90 -31 -59 -92 -172 -129 -235 -14 -25 -36 -66 -48 -92 -11 -26 -27 -49
-35 -52 -8 -3 -14 -12 -14 -19 0 -8 -23 -57 -52 -108 -65 -118 -106 -194 -158
-289 -22 -41 -44 -82 -49 -90 -10 -17 -95 -172 -161 -295 -24 -44 -52 -93 -62
-110 -10 -16 -21 -37 -25 -45 -3 -8 -17 -29 -30 -47 -31 -41 -28 -89 7 -114
24 -17 39 -17 278 -4 139 7 336 14 437 15 171 1 336 5 530 15 127 6 408 15
685 21 140 3 275 7 300 9 25 2 232 8 460 14 228 6 456 13 505 16 149 7 383 14
695 20 162 3 315 7 340 10 25 3 167 7 315 10 265 6 395 9 705 19 182 6 405 13
880 27 432 13 551 17 618 24 53 5 53 5 67 -30 8 -19 15 -44 15 -55 0 -62 146
-280 187 -280 8 0 16 -6 19 -14 7 -17 110 -69 174 -87 72 -20 220 -23 289 -5
101 26 185 73 261 148 39 38 78 83 86 101 9 17 23 46 32 62 50 93 67 234 50
420 -5 61 -13 175 -18 255 -5 80 -14 186 -20 235 -7 50 -13 106 -14 125 -4 50
-23 184 -47 330 -11 69 -27 166 -35 215 -8 50 -18 99 -23 110 -5 11 -12 40
-16 65 -3 25 -10 59 -15 75 -10 34 -52 197 -86 340 -8 33 -26 94 -40 135 -14
41 -29 93 -34 115 -4 22 -18 65 -30 95 -12 30 -25 69 -29 85 -12 44 -41 128
-50 140 -4 5 -15 37 -25 70 -17 55 -42 114 -73 168 -7 12 -13 30 -13 39 0 9
-4 20 -10 23 -5 3 -10 19 -10 34 0 16 -11 44 -24 63 -13 19 -26 51 -30 72 -4
20 -18 53 -32 73 -13 20 -27 48 -31 62 -6 25 -37 91 -90 196 -14 28 -48 95
-76 150 -28 55 -56 107 -63 115 -6 8 -35 60 -63 115 -29 55 -56 107 -61 115
-66 113 -145 240 -186 300 -29 41 -83 120 -120 175 -97 141 -234 325 -320 427
-41 48 -74 90 -74 93 0 16 -77 104 -116 133 -25 18 -57 51 -72 73 -25 39 -123
156 -158 189 -8 8 -27 28 -42 43 -96 100 -312 312 -363 358 -34 30 -89 79
-123 110 -33 31 -88 79 -122 105 -34 27 -83 68 -110 92 -104 91 -543 412 -564
412 -5 0 -24 13 -42 28 -18 16 -49 37 -68 48 -19 10 -61 38 -93 62 -31 23 -64
42 -72 42 -7 0 -16 4 -20 10 -7 11 -173 110 -184 110 -5 0 -26 12 -47 28 -21
15 -55 35 -74 44 -19 10 -42 22 -50 27 -107 63 -270 86 -400 55z m271 -137
c20 -7 43 -17 50 -23 8 -6 48 -28 89 -49 41 -20 82 -43 91 -51 8 -8 20 -14 26
-14 5 0 29 -13 51 -30 23 -16 44 -30 48 -30 3 0 42 -23 87 -51 45 -28 91 -56
102 -62 11 -7 36 -24 56 -39 20 -16 39 -28 42 -28 17 0 496 -344 522 -375 6
-7 39 -34 75 -60 53 -40 211 -173 291 -245 124 -112 206 -189 330 -312 81 -82
152 -148 157 -148 5 0 15 -13 21 -29 7 -15 42 -60 79 -99 156 -164 182 -193
182 -205 0 -7 8 -20 18 -28 36 -33 98 -105 124 -146 15 -23 35 -50 45 -60 37
-37 123 -151 198 -263 43 -63 101 -149 130 -190 29 -41 63 -94 76 -116 13 -23
74 -124 134 -225 61 -101 121 -206 134 -234 14 -27 35 -67 47 -87 23 -37 104
-197 128 -253 35 -80 90 -191 100 -200 22 -20 46 -85 40 -113 -4 -20 0 -33 15
-46 12 -11 26 -38 32 -60 5 -23 21 -61 34 -86 13 -25 29 -67 36 -95 6 -27 18
-61 24 -75 7 -14 27 -65 43 -115 17 -49 42 -121 56 -158 14 -37 26 -78 26 -90
0 -13 4 -27 10 -33 5 -5 16 -39 24 -74 16 -72 29 -120 44 -165 16 -47 33 -115
42 -171 4 -28 12 -60 17 -70 23 -45 103 -471 124 -659 6 -49 15 -108 21 -130
6 -22 12 -67 14 -100 2 -33 10 -134 19 -225 25 -269 33 -521 19 -589 -39 -194
-199 -332 -414 -358 -42 -5 -146 19 -210 49 -25 12 -77 53 -115 92 -105 105
-120 162 -130 471 -8 222 -38 567 -54 608 -6 16 -11 45 -11 65 0 20 -11 93
-25 162 -14 69 -30 150 -35 180 -15 95 -76 349 -101 420 -10 30 -19 68 -19 85
0 16 -7 39 -15 49 -8 11 -15 28 -15 39 0 25 -84 283 -121 371 -16 38 -29 77
-29 87 0 10 -9 35 -19 56 -16 32 -37 79 -91 208 -4 11 -16 43 -25 70 -10 28
-23 57 -29 65 -7 8 -19 31 -27 50 -66 148 -135 290 -171 350 -11 19 -43 78
-70 130 -43 82 -110 196 -170 289 -9 14 -24 40 -33 56 -8 17 -33 53 -54 80
-22 28 -63 88 -93 135 -29 46 -80 118 -114 160 -33 41 -95 120 -137 175 -91
118 -232 284 -317 374 -215 228 -436 442 -579 562 -35 30 -90 78 -123 107 -34
28 -64 52 -69 52 -4 0 -16 8 -26 19 -19 20 -379 291 -387 291 -2 0 -55 34
-117 75 -62 41 -117 75 -122 75 -6 0 -25 11 -43 25 -37 28 -172 109 -274 163
-179 95 -246 185 -275 368 -14 90 35 244 100 313 19 20 35 39 35 43 0 3 24 22
54 42 50 33 109 58 166 70 41 8 192 -3 231 -17z m-297 -972 c26 -19 50 -35 55
-35 5 0 22 -11 38 -24 15 -13 44 -31 63 -40 19 -9 55 -29 80 -46 25 -16 59
-36 77 -45 17 -9 39 -25 49 -36 9 -10 21 -19 26 -19 6 0 31 -16 56 -36 26 -19
81 -57 122 -83 41 -27 84 -57 96 -67 11 -11 27 -23 36 -29 9 -5 52 -39 97 -75
45 -36 97 -76 115 -90 85 -65 164 -131 192 -162 17 -18 46 -44 65 -58 54 -40
437 -425 534 -539 50 -57 107 -122 128 -145 52 -57 167 -202 167 -211 0 -5 19
-32 43 -61 23 -29 58 -75 77 -103 19 -29 50 -71 69 -94 33 -41 131 -188 145
-217 12 -26 30 -54 59 -91 15 -20 27 -39 27 -43 0 -4 20 -38 45 -76 25 -38 45
-72 45 -75 0 -3 20 -39 45 -79 25 -41 45 -80 45 -86 0 -6 27 -64 60 -128 32
-64 62 -124 65 -132 3 -8 14 -28 25 -45 25 -38 46 -85 71 -155 11 -30 33 -84
49 -120 15 -36 36 -85 45 -110 9 -25 23 -58 30 -75 33 -75 66 -169 74 -211 5
-25 14 -51 20 -57 6 -6 11 -20 11 -30 0 -10 6 -33 14 -50 7 -18 22 -59 32 -92
10 -33 22 -65 26 -71 4 -6 11 -33 14 -60 4 -27 10 -53 14 -59 5 -5 11 -32 15
-60 4 -27 13 -65 21 -83 7 -17 18 -58 25 -90 6 -31 18 -88 25 -127 8 -38 19
-95 24 -126 5 -31 14 -68 20 -83 5 -15 10 -45 10 -66 0 -21 5 -51 12 -67 6
-15 14 -68 18 -118 5 -49 15 -151 23 -225 9 -74 18 -173 20 -220 3 -47 10
-125 17 -174 8 -63 9 -91 1 -99 -7 -7 -67 -12 -153 -13 -140 -2 -551 -12 -738
-19 -52 -2 -266 -8 -475 -14 -209 -6 -497 -15 -640 -21 -143 -5 -397 -12 -565
-16 -168 -4 -321 -8 -340 -10 -81 -6 -339 -16 -535 -19 -115 -2 -257 -7 -315
-9 -58 -3 -226 -8 -375 -11 -324 -6 -588 -14 -670 -19 -33 -3 -177 -7 -320
-11 -427 -10 -622 -15 -1110 -31 -104 -3 -233 -9 -285 -14 -99 -9 -120 -4
-120 31 0 9 7 24 15 33 8 8 20 25 25 38 6 13 19 37 29 53 11 17 30 50 42 75
12 25 32 61 44 80 12 19 41 71 66 115 24 44 65 118 90 165 26 47 69 125 96
173 52 95 110 202 158 288 60 109 71 129 105 196 19 37 44 82 56 98 12 17 33
55 48 85 14 30 42 82 61 115 19 33 40 71 46 85 6 14 21 39 35 57 13 17 24 36
24 42 0 8 32 68 69 131 5 8 26 47 46 85 21 39 44 77 51 86 8 8 14 21 14 28 0
6 18 40 40 75 22 35 40 73 40 85 0 12 6 24 14 27 19 7 73 112 92 176 16 51 58
120 93 152 12 11 21 29 21 41 0 13 7 28 15 35 8 7 15 17 15 22 0 5 11 24 25
42 14 19 36 53 49 77 23 45 94 177 127 238 10 19 23 39 29 45 5 5 10 16 10 23
0 7 11 30 23 51 24 37 65 112 139 252 22 41 47 86 56 100 9 14 31 54 50 90 19
36 41 72 48 81 8 8 14 21 14 28 0 7 9 26 20 41 12 16 41 69 67 117 47 90 53
101 103 188 16 28 34 61 40 75 7 14 16 32 21 40 61 109 98 175 124 225 60 112
147 270 156 280 4 6 24 42 44 80 45 86 79 149 130 240 40 69 55 97 129 237 21
40 45 80 52 89 8 8 14 20 14 25 0 5 14 29 30 54 16 25 30 51 30 59 0 8 6 22
14 30 7 9 30 48 51 86 41 78 48 90 87 156 16 25 28 52 28 60 0 17 36 59 50 59
4 0 29 -16 54 -35z"/>
<path d="M4060 7763 c-29 -11 -50 -36 -50 -62 0 -37 9 -47 65 -73 28 -13 64
-33 81 -45 17 -12 43 -27 58 -33 15 -5 52 -26 84 -47 31 -20 73 -46 92 -56 19
-11 62 -38 95 -60 33 -22 79 -53 101 -69 23 -15 54 -28 68 -28 28 0 76 42 76
66 0 14 -99 104 -114 104 -6 0 -26 11 -45 24 -112 74 -180 116 -197 123 -10 4
-37 19 -59 34 -22 15 -58 35 -80 45 -22 10 -56 30 -75 45 -38 28 -76 40 -100
32z"/>
<path d="M5500 6681 c-17 -42 -8 -60 68 -134 214 -209 370 -371 481 -501 23
-27 48 -54 55 -61 7 -7 41 -50 77 -96 35 -45 87 -110 114 -143 76 -92 137
-174 180 -241 20 -33 62 -92 91 -132 30 -39 54 -75 54 -78 0 -4 12 -24 28 -44
15 -20 32 -45 39 -56 6 -11 41 -68 77 -126 36 -59 66 -109 66 -112 0 -4 12
-23 26 -44 14 -21 48 -83 76 -138 27 -54 53 -104 57 -110 7 -9 46 -79 78 -140
6 -11 23 -49 38 -85 35 -80 109 -240 140 -300 12 -25 35 -82 50 -127 14 -46
31 -85 36 -88 5 -4 9 -16 9 -29 0 -12 7 -31 15 -42 8 -10 15 -29 15 -41 0 -12
6 -34 14 -50 24 -47 65 -156 75 -198 5 -22 14 -53 20 -70 20 -57 75 -247 111
-385 44 -165 47 -176 74 -315 8 -44 20 -96 26 -115 5 -19 10 -53 10 -75 0 -22
5 -56 10 -75 6 -19 15 -66 20 -105 5 -38 16 -117 25 -175 27 -188 35 -264 36
-340 0 -41 5 -88 10 -105 5 -16 10 -106 11 -198 l3 -168 26 -16 c16 -10 36
-13 50 -10 52 14 54 20 52 124 -5 180 -14 357 -21 368 -3 5 -10 64 -14 130 -9
151 -27 305 -38 326 -4 8 -11 56 -15 105 -3 49 -11 100 -16 114 -5 14 -13 52
-18 85 -16 100 -38 203 -71 335 -6 25 -15 63 -20 85 -5 22 -15 63 -23 90 -9
28 -29 104 -47 170 -17 66 -42 147 -55 180 -13 33 -25 71 -28 85 -6 28 -23 78
-43 128 -8 18 -14 43 -14 56 0 13 -7 29 -15 36 -8 7 -15 19 -15 26 0 8 -13 44
-29 81 -16 38 -44 106 -61 153 -18 47 -46 112 -61 146 -16 34 -29 66 -29 73 0
7 -20 51 -44 99 -24 48 -47 94 -50 102 -3 8 -18 35 -32 60 -14 25 -54 99 -88
165 -122 233 -224 416 -274 491 -57 86 -94 139 -129 186 -24 31 -43 59 -43 62
0 7 -94 136 -267 370 -20 28 -44 57 -52 66 -9 9 -41 47 -71 85 -30 38 -82 99
-115 135 -33 37 -75 86 -94 109 -19 23 -131 139 -248 257 -204 203 -217 214
-253 214 -32 0 -39 -4 -50 -29z"/>
<path d="M3985 6207 c-64 -19 -154 -67 -225 -122 -67 -51 -134 -113 -141 -130
-2 -5 -29 -48 -60 -95 -31 -47 -64 -107 -74 -135 -11 -27 -24 -59 -30 -70 -7
-11 -20 -49 -29 -85 -9 -36 -22 -78 -28 -95 -5 -16 -12 -59 -15 -95 -3 -35 -8
-71 -13 -80 -4 -8 -6 -89 -5 -180 3 -152 8 -195 43 -355 31 -138 124 -319 225
-435 43 -50 131 -127 162 -141 11 -5 27 -13 35 -18 16 -10 74 -32 131 -50 50
-16 192 -15 269 2 147 33 216 104 244 252 8 44 13 92 11 105 -3 14 -11 63 -20
110 -28 157 -28 157 -15 165 6 4 51 0 98 -8 96 -18 239 -35 377 -47 50 -5 126
-13 170 -20 74 -11 84 -10 126 9 134 60 215 259 204 506 -4 101 -32 236 -53
257 -7 7 -12 16 -12 20 0 5 -11 26 -25 48 -17 27 -41 47 -78 64 -53 25 -53 25
-217 16 -91 -5 -199 -14 -240 -20 -41 -5 -109 -10 -151 -10 -42 0 -90 -5 -108
-11 -48 -17 -81 -5 -81 29 0 15 5 33 11 39 17 17 40 137 46 237 7 120 -13 180
-83 253 -29 29 -60 53 -71 53 -10 0 -24 5 -31 12 -28 28 -274 46 -347 25z
m242 -131 c103 -19 141 -48 163 -126 15 -53 -30 -323 -66 -393 -20 -41 -18
-100 5 -121 16 -14 32 -17 78 -13 32 2 128 9 213 16 85 6 205 16 265 22 61 6
158 13 216 16 l106 6 29 -38 c58 -77 81 -276 49 -439 -17 -94 -73 -191 -112
-199 -25 -5 -89 2 -250 24 -43 5 -130 15 -193 20 -63 5 -130 14 -150 19 -19 5
-65 10 -101 10 -36 0 -80 5 -97 11 -53 18 -124 -37 -93 -74 5 -7 17 -55 26
-107 9 -52 20 -115 25 -140 5 -25 9 -81 9 -125 1 -70 -2 -85 -24 -118 -30 -44
-70 -66 -147 -82 -76 -16 -201 -4 -254 24 -21 12 -43 21 -49 21 -28 1 -161
130 -215 210 -45 67 -121 257 -146 365 -26 117 -27 439 0 545 21 86 42 151 62
197 8 17 14 35 14 41 0 10 39 86 73 142 37 61 122 158 168 192 131 98 240 124
396 94z"/>
<path d="M5650 4764 c-45 -9 -129 -43 -172 -70 -40 -25 -147 -131 -148 -146 0
-4 -11 -23 -24 -43 -46 -68 -67 -152 -67 -274 0 -79 4 -118 14 -138 9 -15 21
-44 28 -63 34 -93 175 -228 279 -268 61 -23 206 -42 242 -31 18 5 51 9 74 9
25 0 47 6 54 15 7 8 19 15 27 15 14 0 37 13 107 59 56 37 148 151 173 213 49
125 56 166 44 242 -21 133 -27 161 -47 195 -10 18 -25 44 -31 56 -27 48 -151
152 -226 189 -71 36 -81 38 -189 41 -62 2 -124 1 -138 -1z m205 -130 c86 -19
173 -81 223 -159 38 -58 62 -107 62 -124 0 -8 5 -29 12 -47 26 -72 -29 -238
-105 -322 -85 -91 -162 -124 -292 -123 -75 0 -101 5 -149 26 -109 48 -187 132
-229 245 -22 60 -23 192 -2 210 8 7 15 23 15 37 0 37 46 108 103 158 29 25 56
45 61 45 5 0 17 7 27 16 46 41 175 59 274 38z"/>
<path d="M5675 4493 c-56 -20 -97 -54 -133 -110 -38 -59 -48 -122 -32 -199 10
-48 20 -65 64 -109 92 -93 196 -109 311 -48 69 37 124 118 132 197 19 182
-170 331 -342 269z m152 -134 c89 -55 82 -179 -12 -223 -89 -42 -185 16 -185
112 0 104 108 166 197 111z"/>
<path d="M2940 4390 c-70 -13 -121 -27 -133 -39 -6 -6 -20 -11 -31 -11 -67 0
-241 -190 -275 -300 -7 -25 -15 -95 -18 -156 -6 -135 16 -217 81 -309 119
-168 320 -255 512 -220 72 13 81 16 154 48 48 21 168 120 178 146 3 9 18 32
33 51 59 76 90 231 70 359 -11 68 -53 173 -83 206 -7 8 -24 29 -37 47 -30 41
-132 118 -181 136 -105 39 -202 54 -270 42z m239 -171 c133 -69 198 -169 208
-317 5 -78 3 -98 -18 -156 -13 -37 -40 -88 -59 -114 -39 -52 -136 -122 -192
-141 -125 -41 -316 4 -399 96 -38 42 -85 122 -103 176 -21 62 -21 168 0 215
47 105 59 124 97 162 94 93 169 122 302 116 89 -3 107 -7 164 -37z"/>
<path d="M2910 4112 c-59 -28 -97 -60 -132 -110 -30 -44 -32 -53 -33 -132 0
-80 2 -89 32 -135 18 -28 55 -65 82 -84 47 -32 54 -33 138 -33 80 0 93 2 128
26 47 32 105 101 105 125 0 10 5 22 11 28 18 18 19 86 2 141 -43 142 -213 231
-333 174z m154 -131 c39 -22 64 -67 65 -114 1 -32 -6 -45 -41 -82 -42 -43 -59
-49 -124 -46 -11 1 -37 16 -57 35 -35 32 -37 37 -37 93 0 52 3 63 29 87 48 46
115 57 165 27z"/>
<path d="M5630 3605 c-19 -7 -45 -14 -58 -14 -41 -2 -205 -64 -265 -101 -32
-19 -69 -41 -82 -48 -14 -7 -25 -17 -25 -23 0 -5 -5 -9 -10 -9 -11 0 -134
-123 -187 -188 -36 -44 -153 -270 -153 -296 0 -10 -4 -26 -10 -36 -15 -28 -42
-207 -42 -284 0 -129 29 -247 100 -411 37 -86 57 -119 117 -193 5 -7 44 -47
85 -90 115 -120 245 -197 410 -243 19 -6 44 -14 55 -19 41 -19 248 -28 361
-17 33 4 80 13 104 22 23 8 50 15 59 15 27 0 180 67 216 94 19 15 37 26 40 26
4 0 38 24 76 54 73 57 157 145 209 222 41 59 110 192 110 211 0 8 6 27 14 41
8 15 18 48 21 74 3 26 10 50 16 53 5 4 9 79 9 172 0 159 -12 255 -40 318 -5
11 -21 52 -36 90 -43 109 -73 157 -159 250 -44 48 -87 95 -95 104 -21 25 -183
129 -228 147 -20 9 -50 21 -67 28 -41 18 -88 33 -166 51 -84 19 -328 19 -379
0z m319 -121 c47 -9 98 -22 113 -30 15 -8 35 -14 44 -14 58 0 281 -146 349
-229 16 -20 35 -40 41 -46 23 -21 92 -132 102 -165 6 -19 19 -57 30 -85 47
-118 66 -331 38 -429 -9 -30 -16 -65 -16 -78 0 -12 -7 -32 -15 -42 -8 -11 -15
-28 -15 -38 0 -46 -109 -222 -187 -303 -74 -77 -267 -205 -308 -205 -7 0 -18
-7 -25 -15 -7 -8 -28 -15 -47 -15 -19 0 -48 -8 -66 -17 -48 -25 -361 -26 -397
0 -13 9 -35 17 -48 17 -20 0 -73 23 -177 77 -56 30 -170 122 -218 177 -72 83
-109 142 -150 238 -97 228 -89 479 22 718 39 82 133 208 196 261 94 78 260
179 294 179 7 0 22 6 34 12 28 16 196 46 266 47 30 1 93 -6 140 -15z"/>
<path d="M5494 3302 c-209 -69 -304 -286 -198 -453 26 -41 104 -109 125 -109
8 0 38 -9 67 -20 47 -18 61 -19 115 -9 34 6 76 18 93 26 38 18 125 132 147
193 18 48 23 115 9 124 -5 3 -17 33 -27 68 -26 89 -76 139 -174 175 -61 21
-104 23 -157 5z m139 -123 c37 -20 76 -71 83 -108 4 -20 11 -44 16 -54 14 -27
-6 -83 -47 -133 l-36 -44 -74 0 c-63 0 -80 4 -111 25 -21 14 -44 35 -52 46
-10 14 -17 17 -26 10 -9 -8 -10 9 -4 77 12 119 27 140 120 168 87 26 102 28
131 13z"/>
<path d="M6093 3159 c-24 -13 -43 -29 -43 -36 0 -7 -13 -22 -29 -34 -74 -55
-76 -197 -4 -266 18 -18 33 -36 33 -42 0 -16 99 -61 135 -61 64 0 173 63 196
114 6 12 16 32 25 46 17 30 10 138 -12 182 -8 15 -40 46 -71 69 -50 37 -63 42
-122 46 -54 3 -74 0 -108 -18z m35 -123 c46 20 92 16 127 -10 30 -24 35 -33
35 -70 0 -68 -60 -118 -123 -102 -13 3 -38 26 -56 51 -28 39 -31 50 -23 73 5
15 8 43 5 62 -3 31 -2 32 7 11 7 -17 15 -21 28 -15z"/>
<path d="M5248 2650 c-46 -14 -96 -49 -130 -92 -28 -36 -33 -51 -36 -108 -6
-104 37 -179 129 -225 42 -22 56 -24 111 -18 69 7 99 21 141 67 61 69 78 157
46 250 -13 38 -72 92 -124 115 -33 14 -108 20 -137 11z m105 -135 c27 -11 36
-21 41 -49 15 -79 -23 -136 -89 -136 -85 0 -134 90 -84 154 36 46 75 55 132
31z"/>
<path d="M6191 2573 c-30 -6 -89 -43 -118 -74 -84 -91 -65 -240 41 -316 47
-34 56 -37 122 -37 55 -1 76 3 91 17 11 9 24 17 29 17 6 0 26 17 46 38 122
125 41 339 -134 355 -29 3 -64 3 -77 0z m124 -155 c27 -32 27 -44 6 -101 -5
-13 -25 -32 -45 -41 -31 -15 -39 -15 -69 -3 -41 18 -71 61 -63 92 3 13 18 37
32 54 21 26 33 31 69 31 36 0 48 -5 70 -32z"/>
<path d="M5642 2247 c-72 -27 -152 -135 -152 -205 0 -40 43 -123 81 -158 41
-37 134 -68 175 -58 16 4 44 16 62 26 103 57 122 87 122 187 0 64 -4 78 -31
120 -57 87 -161 122 -257 88z m139 -146 c21 -21 29 -39 29 -63 0 -40 -13 -58
-57 -84 -32 -18 -33 -18 -70 3 -68 38 -80 110 -26 153 38 30 88 26 124 -9z"/>
<path d="M4155 3483 c-33 -7 -73 -18 -90 -24 -16 -6 -44 -14 -61 -18 -16 -5
-43 -15 -60 -24 -16 -9 -40 -22 -54 -28 -100 -50 -281 -205 -301 -257 -4 -9
-16 -26 -28 -36 -11 -11 -32 -42 -45 -70 -52 -110 -76 -169 -76 -188 0 -10 -7
-33 -17 -51 -25 -48 -22 -348 4 -432 27 -87 55 -99 233 -100 132 0 306 20 316
37 3 4 11 8 18 8 26 0 97 37 240 125 126 78 246 237 330 437 45 108 58 352 27
508 -20 99 -19 97 -191 119 -100 13 -172 11 -245 -6z m282 -129 c28 -5 43 -52
49 -158 5 -76 -15 -218 -37 -258 -5 -10 -9 -24 -9 -31 0 -21 -87 -188 -110
-212 -11 -11 -43 -46 -72 -78 -81 -90 -168 -148 -278 -185 -36 -13 -78 -28
-95 -34 -35 -12 -263 -23 -299 -14 -44 11 -56 52 -56 183 0 85 6 138 20 188
22 83 39 134 51 155 5 8 21 37 36 64 16 27 33 58 40 69 22 38 119 129 184 173
37 24 70 44 73 44 4 0 19 9 34 20 55 39 169 71 281 78 102 7 142 6 188 -4z"/>
<path d="M2345 3023 c-46 -9 -94 -37 -114 -64 -21 -28 -29 -58 -51 -178 -5
-30 -14 -59 -20 -65 -5 -5 -10 -33 -11 -61 0 -75 -18 -119 -50 -123 -15 -2
-33 4 -41 12 -20 19 -94 53 -136 61 -98 20 -202 -53 -243 -170 -48 -137 -42
-233 22 -338 16 -26 29 -51 29 -55 0 -4 19 -27 43 -52 98 -104 195 -170 312
-214 28 -10 55 -22 60 -26 14 -11 165 -37 255 -44 70 -6 130 1 225 26 73 19
99 31 167 75 122 80 189 216 174 356 -8 75 -15 88 -78 130 -51 33 -81 42 -181
54 -28 3 -51 11 -54 19 -3 8 11 47 31 86 20 39 36 75 36 79 0 9 52 128 75 172
19 36 19 110 1 145 -19 38 -118 111 -188 139 -75 31 -206 49 -263 36z m184
-143 c150 -67 168 -89 133 -163 -36 -75 -72 -157 -72 -163 0 -7 -47 -111 -66
-146 -8 -14 -14 -33 -14 -41 0 -8 -7 -20 -15 -27 -22 -18 -18 -64 6 -86 16
-14 43 -21 113 -26 167 -13 220 -30 229 -76 3 -14 -4 -57 -15 -96 -17 -65 -24
-75 -73 -116 -87 -72 -147 -92 -300 -97 -117 -5 -139 -3 -222 20 -119 33 -233
93 -316 169 -75 67 -118 136 -136 218 -12 50 -11 62 9 122 23 71 55 108 94
108 20 0 92 -33 216 -100 85 -47 127 -23 141 81 10 83 28 164 45 212 8 20 14
48 14 62 0 43 30 140 47 153 27 19 130 15 182 -8z"/>
</g>
</svg>
