<?xml version="1.0" standalone="no"?>
<!DOCTYPE svg PUBLIC "-//W3C//DTD SVG 20010904//EN"
 "http://www.w3.org/TR/2001/REC-SVG-20010904/DTD/svg10.dtd">
<svg version="1.0" xmlns="http://www.w3.org/2000/svg"
 width="300.000000pt" height="278.000000pt" viewBox="0 0 300.000000 278.000000"
 preserveAspectRatio="xMidYMid meet">
<metadata>
Created by potrace 1.10, written by Peter Selinger 2001-2011
</metadata>
<g transform="translate(0.000000,278.000000) scale(0.050000,-0.050000)"
fill="#000000" stroke="none">
<path d="M4945 5258 c-95 -47 -147 -111 -184 -223 l-24 -75 -184 -1 c-100 -1
-232 -5 -293 -9 -60 -5 -303 -13 -540 -19 -236 -7 -835 -25 -1330 -41 -495
-15 -1066 -33 -1270 -39 -646 -20 -820 -33 -820 -62 0 -15 111 -201 246 -413
530 -832 654 -1030 654 -1043 0 -14 240 -394 523 -828 81 -123 179 -276 219
-340 40 -63 218 -343 396 -622 l323 -506 -49 -58 c-253 -301 102 -747 452
-567 841 432 1758 1556 2129 2607 239 679 374 1680 274 2031 -58 201 -322 307
-522 208z m317 -89 c212 -108 171 -1052 -82 -1913 -126 -432 -391 -954 -747
-1476 -159 -234 -597 -697 -843 -891 -55 -43 -104 -84 -110 -91 -41 -50 -471
-318 -527 -329 -172 -32 -333 104 -333 282 0 109 47 169 227 290 1270 849
1991 2207 1993 3753 l0 245 62 70 c95 109 223 130 360 60z m-522 -524 c-1
-372 -93 -908 -219 -1273 -23 -65 -41 -134 -41 -152 0 -19 -27 -96 -61 -172
-290 -655 -752 -1257 -1299 -1690 -286 -227 -372 -282 -395 -253 -11 14 -170
264 -355 555 -598 945 -639 1010 -651 1020 -18 15 -519 811 -519 825 0 11
-457 738 -656 1044 -133 203 -140 191 111 193 118 1 242 5 275 7 33 3 276 12
540 19 264 7 570 18 680 23 181 9 602 22 2010 61 259 7 474 17 478 21 75 66
102 6 102 -228z"/>
<path d="M5079 4976 c-35 -248 4 -581 62 -523 39 39 15 515 -26 523 -19 4 -35
4 -36 0z"/>
<path d="M4985 3775 c-11 -14 -27 -56 -34 -95 -54 -275 -204 -689 -363 -1002
-59 -117 -108 -219 -108 -227 0 -37 -351 -538 -505 -721 -274 -326 -651 -660
-991 -878 -142 -90 -170 -134 -95 -149 89 -17 614 398 983 777 218 224 628
765 628 829 0 7 48 101 108 210 277 511 527 1281 415 1281 -10 0 -27 -11 -38
-25z"/>
<path d="M2540 4601 c-397 -117 -340 -672 69 -671 328 1 479 421 216 606 -84
59 -208 88 -285 65z m210 -121 c76 -47 117 -133 114 -236 -9 -233 -334 -311
-465 -113 -144 219 126 488 351 349z"/>
<path d="M2498 4382 c-72 -73 -74 -140 -6 -220 100 -120 289 -52 287 102 -1
159 -169 229 -281 118z m192 -82 c21 -33 -9 -97 -52 -111 -51 -16 -98 23 -98
82 0 82 105 102 150 29z"/>
<path d="M3698 4591 c-538 -148 -818 -689 -497 -958 93 -79 184 -68 299 38 84
78 95 69 190 -140 135 -297 206 -334 427 -222 255 129 272 228 84 493 -76 109
-132 201 -125 205 8 4 50 19 94 33 492 154 33 690 -472 551z m412 -111 c87
-42 170 -159 170 -238 0 -52 -91 -111 -226 -146 -54 -13 -103 -36 -109 -51
-10 -27 -3 -39 153 -255 193 -266 191 -294 -27 -400 -172 -85 -183 -77 -311
204 -142 315 -128 306 -270 186 -175 -148 -275 -124 -330 79 -99 368 570 805
950 621z"/>
<path d="M1280 4503 c-179 -96 -183 -543 -7 -726 177 -185 469 -123 412 88
-27 102 -14 114 121 115 141 0 204 67 186 197 -25 187 -106 246 -266 192 -64
-21 -127 -41 -141 -45 -16 -5 -25 15 -25 55 0 137 -141 198 -280 124z m180
-94 c11 -29 20 -83 20 -120 0 -84 15 -86 218 -25 171 50 202 34 202 -105 l0
-73 -180 -25 c-195 -27 -208 -39 -150 -141 91 -159 -78 -230 -217 -92 -181
181 -175 563 9 615 76 21 78 20 98 -34z"/>
<path d="M2140 3668 c-252 -90 -302 -188 -187 -361 195 -294 614 -355 886
-129 248 206 -340 619 -699 490z m354 -89 c129 -49 306 -221 306 -298 0 -84
-291 -174 -452 -141 -171 36 -395 240 -361 330 36 94 361 164 507 109z"/>
<path d="M3608 3151 c-205 -89 -267 -340 -124 -502 172 -197 476 -167 583 57
130 274 -175 569 -459 445z m244 -83 c276 -131 143 -517 -158 -460 -236 44
-268 367 -46 464 82 35 122 34 204 -4z"/>
<path d="M3629 2951 c-103 -104 -29 -271 121 -271 107 0 179 78 163 176 -23
141 -184 195 -284 95z m191 -71 c30 -56 -7 -120 -70 -120 -28 0 -58 17 -70 40
-30 56 7 120 70 120 28 0 58 -17 70 -40z"/>
<path d="M2739 2920 c-794 -135 -686 -1270 121 -1270 794 0 885 1102 104 1268
-58 12 -112 21 -120 20 -8 -2 -55 -10 -105 -18z m375 -151 c496 -287 358 -975
-210 -1042 -398 -47 -712 348 -594 746 89 301 521 460 804 296z"/>
<path d="M2866 2701 c-77 -47 -98 -113 -66 -210 47 -145 217 -181 322 -69 161
173 -51 404 -256 279z m199 -77 c65 -56 6 -184 -84 -184 -104 0 -137 166 -42
213 51 25 67 22 126 -29z"/>
<path d="M2473 2607 c-66 -66 -67 -134 -4 -198 63 -63 150 -64 208 -3 132 141
-68 338 -204 201z m167 -94 c0 -69 -87 -95 -119 -34 -16 29 -13 46 10 70 35
35 109 11 109 -36z"/>
<path d="M3074 2292 c-105 -97 -48 -252 93 -252 124 0 190 136 109 226 -69 78
-137 87 -202 26z m142 -120 c-4 -30 -21 -42 -56 -42 -60 0 -75 52 -29 98 42
42 94 7 85 -56z"/>
<path d="M2395 2245 c-126 -141 65 -327 198 -194 58 58 55 158 -7 204 -49 36
-155 31 -191 -10z m135 -105 c0 -57 -63 -81 -82 -31 -18 47 7 95 47 87 22 -4
35 -25 35 -56z"/>
<path d="M2743 2054 c-92 -98 -20 -242 115 -230 100 9 157 91 122 175 -45 109
-161 135 -237 55z m147 -104 c0 -60 -78 -54 -87 7 -5 38 2 45 40 40 31 -5 47
-20 47 -47z"/>
</g>
</svg>
