<?xml version="1.0" standalone="no"?>
<!DOCTYPE svg PUBLIC "-//W3C//DTD SVG 20010904//EN"
 "http://www.w3.org/TR/2001/REC-SVG-20010904/DTD/svg10.dtd">
<svg version="1.0" xmlns="http://www.w3.org/2000/svg"
 width="300.000000pt" height="286.000000pt" viewBox="0 0 300.000000 286.000000"
 preserveAspectRatio="xMidYMid meet">
<metadata>
Created by potrace 1.10, written by Peter Selinger 2001-2011
</metadata>
<g transform="translate(0.000000,286.000000) scale(0.050000,-0.050000)"
fill="#000000" stroke="none">
<path d="M5279 4893 c-5 -4 -94 -13 -199 -20 -104 -7 -374 -26 -600 -42 -225
-16 -608 -43 -850 -60 -242 -17 -561 -40 -710 -51 -148 -11 -535 -38 -860 -60
-324 -22 -633 -45 -685 -51 -82 -9 -95 -6 -95 26 0 215 -360 316 -541 151
-113 -101 -129 -174 -101 -449 162 -1565 1096 -2928 2498 -3647 383 -196 742
152 486 471 -34 42 -62 81 -62 86 0 5 401 813 890 1796 490 983 888 1800 885
1815 -5 29 -40 50 -56 35z m-4167 -150 c67 -49 104 -153 117 -333 90 -1262
895 -2476 2081 -3139 304 -171 355 -245 283 -418 -75 -177 -225 -193 -490 -51
-1343 717 -2245 2064 -2381 3555 -34 365 160 556 390 386z m4108 49 c0 -22
-1741 -3512 -1752 -3512 -56 0 -530 312 -748 492 -789 652 -1420 1863 -1420
2724 0 11 56 26 125 32 185 16 882 67 1405 103 253 17 644 44 868 60 225 17
544 39 710 50 166 12 383 28 482 37 221 20 330 25 330 14z"/>
<path d="M920 4521 c0 -506 261 -1353 589 -1910 227 -386 850 -1111 954 -1111
48 0 49 72 2 98 -56 30 -413 399 -536 552 -499 625 -825 1418 -913 2220 -20
182 -28 210 -59 210 -28 0 -37 -15 -37 -59z"/>
<path d="M2980 1144 c0 -38 370 -252 403 -232 42 26 9 71 -88 120 -57 30 -138
75 -179 101 -90 56 -136 60 -136 11z"/>
<path d="M4049 4512 c-211 -92 -226 -313 -25 -363 l54 -13 -39 -99 c-73 -186
-12 -277 186 -277 110 0 125 17 153 168 26 142 24 139 88 110 121 -55 233 63
205 216 -38 201 -404 353 -622 258z m401 -121 c195 -114 197 -353 2 -260 -99
46 -124 30 -140 -94 -27 -202 -27 -203 -117 -191 -122 16 -127 33 -68 194 66
177 66 180 -6 180 -196 0 -209 134 -22 225 63 30 259 0 351 -54z"/>
<path d="M2015 4473 c-212 -79 -372 -294 -390 -523 -44 -567 701 -856 1054
-408 369 467 -109 1137 -664 931z m378 -76 c275 -83 419 -439 286 -705 -127
-254 -445 -363 -691 -235 -566 291 -206 1125 405 940z"/>
<path d="M2194 4367 c-100 -53 -88 -187 21 -229 42 -16 63 -12 104 18 134 100
23 289 -125 211z m103 -96 c9 -45 -37 -76 -71 -47 -33 27 -33 70 -1 83 39 15
64 3 72 -36z"/>
<path d="M1900 4174 c-105 -53 -102 -172 6 -234 48 -27 57 -26 108 13 137 101
36 297 -114 221z m100 -114 c0 -39 -35 -60 -75 -45 -31 12 -32 50 -3 79 31 31
78 10 78 -34z"/>
<path d="M2420 4140 c-105 -105 15 -286 144 -218 125 66 85 258 -54 258 -27 0
-68 -18 -90 -40z m130 -100 c0 -57 -63 -81 -82 -31 -18 47 7 95 47 87 22 -4
35 -25 35 -56z"/>
<path d="M2307 3860 c-173 -70 -123 -340 64 -340 194 0 256 257 80 331 -79 33
-85 33 -144 9z m129 -91 c80 -56 36 -169 -66 -169 -99 0 -133 144 -42 180 58
24 58 24 108 -11z"/>
<path d="M1900 3800 c-82 -82 -21 -220 99 -220 58 0 141 76 141 130 0 106
-163 167 -240 90z m148 -72 c16 -42 -2 -68 -48 -68 -45 0 -68 31 -52 71 15 39
85 37 100 -3z"/>
<path d="M3348 4173 c-250 -63 -408 -271 -408 -537 0 -177 16 -196 168 -196
315 0 546 247 528 563 -10 189 -70 225 -288 170z m212 -179 c0 -262 -213 -487
-444 -470 l-86 6 -7 90 c-16 231 147 434 384 478 119 22 153 -1 153 -104z"/>
<path d="M3800 3538 c-317 -127 -232 -598 108 -598 187 0 312 123 312 308 0
216 -222 369 -420 290z m209 -86 c222 -93 144 -432 -99 -432 -243 0 -318 322
-101 429 77 38 115 38 200 3z"/>
<path d="M3809 3351 c-60 -60 -63 -128 -8 -198 86 -109 259 -46 259 94 0 136
-154 200 -251 104z m161 -101 c0 -53 -7 -60 -60 -60 -67 0 -91 51 -48 102 43
52 108 27 108 -42z"/>
<path d="M2160 3238 c-114 -46 -183 -156 -183 -291 0 -385 574 -406 617 -23
26 232 -211 403 -434 314z m229 -78 c78 -29 135 -134 124 -228 -24 -194 -268
-278 -395 -137 -169 190 29 457 271 365z"/>
<path d="M2180 3060 c-91 -91 -22 -260 105 -260 70 0 155 80 155 146 0 131
-169 205 -260 114z m174 -73 c31 -82 -93 -144 -134 -67 -17 32 -17 50 1 71 32
39 117 37 133 -4z"/>
<path d="M3145 3050 c-88 -38 -114 -110 -90 -248 l19 -108 -219 13 c-140 8
-233 5 -259 -9 -117 -63 -131 -373 -22 -490 53 -58 42 -57 389 -16 l113 13
-11 -129 c-32 -410 501 -309 629 120 148 497 -184 1013 -549 854z m242 -77
c351 -147 326 -973 -33 -1052 -177 -40 -232 19 -199 213 30 174 39 169 -254
135 -307 -36 -311 -34 -311 171 0 201 4 204 308 178 288 -25 288 -25 251 132
-52 217 42 305 238 223z"/>
</g>
</svg>
