<?xml version="1.0" standalone="no"?>
<!DOCTYPE svg PUBLIC "-//W3C//DTD SVG 20010904//EN"
 "http://www.w3.org/TR/2001/REC-SVG-20010904/DTD/svg10.dtd">
<svg version="1.0" xmlns="http://www.w3.org/2000/svg"
 width="300.000000pt" height="291.000000pt" viewBox="0 0 300.000000 291.000000"
 preserveAspectRatio="xMidYMid meet">
<metadata>
Created by potrace 1.10, written by Peter Selinger 2001-2011
</metadata>
<g transform="translate(0.000000,291.000000) scale(0.050000,-0.050000)"
fill="#000000" stroke="none">
<path d="M2909 5253 c-819 -397 -1736 -1419 -2109 -2353 -24 -60 -53 -132 -64
-160 -176 -429 -300 -1049 -304 -1521 l-2 -292 58 -76 c166 -219 506 -185 604
60 l38 94 780 -13 c716 -12 1646 -32 2975 -63 484 -12 515 -10 515 23 0 19
-132 270 -294 557 -162 286 -385 683 -496 881 -201 357 -376 669 -625 1110
-72 127 -238 424 -370 660 -133 237 -252 447 -266 467 -22 32 -16 49 43 127
246 322 -103 682 -483 499z m381 -101 c82 -78 107 -182 67 -288 -28 -73 -81
-116 -299 -244 -587 -343 -1209 -1016 -1542 -1670 -301 -593 -421 -1063 -482
-1906 -17 -228 -244 -330 -428 -191 -96 71 -110 152 -86 480 113 1588 976
2992 2323 3782 238 140 329 147 447 37z m-8 -577 c12 -25 142 -256 288 -515
146 -258 386 -686 534 -950 148 -264 290 -516 315 -560 25 -44 171 -305 325
-580 155 -275 333 -592 398 -704 64 -112 120 -214 123 -227 6 -28 -69 -27
-1425 1 -490 10 -1200 24 -1580 31 -379 7 -735 16 -790 20 -55 4 -153 7 -218
8 l-118 1 12 205 c77 1288 862 2584 1966 3243 141 84 140 84 170 27z"/>
<path d="M2920 4905 c-710 -435 -1331 -1108 -1697 -1840 -166 -331 -360 -861
-333 -905 35 -57 71 -5 140 205 346 1053 1081 1977 1978 2486 78 44 145 96
148 115 12 59 -77 37 -236 -61z"/>
<path d="M752 1456 c-41 -259 -20 -478 41 -440 41 26 44 492 3 500 -25 5 -36
-11 -44 -60z"/>
<path d="M2968 4097 c-442 -76 -660 -595 -405 -963 349 -503 1143 -269 1143
337 1 394 -351 693 -738 626z m322 -124 c548 -256 391 -1017 -210 -1021 -592
-5 -749 838 -192 1036 128 45 286 39 402 -15z"/>
<path d="M3013 3899 c-67 -53 -68 -125 -4 -190 89 -88 231 -29 231 96 0 57
-81 135 -140 135 -19 0 -58 -19 -87 -41z m128 -70 c42 -51 -27 -111 -74 -64
-33 32 -11 95 33 95 8 0 27 -14 41 -31z"/>
<path d="M2681 3687 c-108 -138 63 -301 200 -190 31 25 46 58 46 103 0 131
-165 190 -246 87z m155 -82 c9 -58 -48 -82 -91 -39 -26 27 -27 37 -5 64 36 43
89 29 96 -25z"/>
<path d="M3355 3719 c-94 -55 -84 -190 17 -236 72 -33 101 -29 147 21 109 116
-27 294 -164 215z m122 -107 c8 -42 -30 -73 -70 -58 -29 11 -37 70 -13 93 25
25 75 4 83 -35z"/>
<path d="M2817 3365 c-71 -77 -81 -117 -48 -195 65 -156 269 -169 339 -21 91
192 -149 370 -291 216z m202 -64 c63 -117 -24 -221 -128 -153 -93 61 -50 190
63 191 25 1 54 -16 65 -38z"/>
<path d="M3244 3369 c-58 -41 -60 -153 -4 -209 124 -124 319 68 199 196 -48
52 -132 57 -195 13z m144 -82 c15 -37 -20 -87 -61 -87 -34 0 -56 49 -40 90 16
40 86 38 101 -3z"/>
<path d="M2089 3300 c-84 -26 -184 -130 -208 -217 -104 -373 376 -587 594
-265 160 238 -104 568 -386 482z m247 -111 c190 -133 100 -439 -129 -439 -246
0 -347 277 -157 427 67 52 219 59 286 12z"/>
<path d="M2083 3094 c-140 -150 71 -363 216 -218 75 75 79 148 12 215 -65 65
-168 66 -228 3z m176 -63 c54 -64 -25 -151 -100 -110 -38 20 -53 98 -26 126
24 23 101 14 126 -16z"/>
<path d="M3255 2719 c-82 -20 -210 -94 -253 -147 -64 -77 111 -335 288 -422
248 -123 710 17 651 197 -87 263 -414 441 -686 372z m368 -135 c106 -55 248
-222 231 -272 -35 -110 -370 -159 -525 -78 -92 48 -217 178 -239 247 -45 140
324 212 533 103z"/>
<path d="M1809 2553 c-236 -110 -254 -204 -89 -467 67 -105 118 -193 115 -195
-3 -2 -43 -15 -89 -28 -240 -69 -278 -283 -81 -456 414 -363 1337 220 1096
692 -89 173 -206 199 -366 82 -99 -73 -91 -80 -185 164 -103 269 -181 310
-401 208z m235 -59 c14 -15 66 -132 116 -260 100 -264 102 -265 242 -154 111
87 192 103 242 45 321 -367 -539 -976 -923 -653 -158 133 -121 262 91 319 172
47 172 38 10 298 -160 256 -158 249 -97 306 100 94 270 147 319 99z"/>
<path d="M4149 2031 c-54 -54 -60 -92 -27 -155 30 -55 -4 -75 -128 -76 -170 0
-223 -76 -174 -251 41 -144 77 -164 229 -123 167 44 163 45 165 -38 5 -186
254 -188 366 -3 200 329 -180 897 -431 646z m235 -66 c221 -129 207 -625 -17
-625 -67 0 -67 0 -67 96 0 135 -19 147 -167 102 -208 -63 -248 -43 -230 115 7
56 8 57 156 63 187 7 210 24 170 118 -64 154 10 216 155 131z"/>
<path d="M3059 1855 c-303 -153 -190 -615 151 -615 284 0 434 351 235 550
-114 114 -245 136 -386 65z m284 -87 c65 -33 124 -171 106 -250 -45 -209 -337
-257 -448 -74 -136 222 100 445 342 324z"/>
<path d="M3101 1681 c-63 -63 -72 -136 -27 -198 115 -154 346 -44 284 135 -37
106 -180 140 -257 63z m169 -109 c0 -84 -57 -114 -112 -59 -57 58 -22 133 58
123 45 -5 54 -16 54 -64z"/>
</g>
</svg>
